<mxfile host="app.diagrams.net" modified="2023-04-17T15:49:12.798Z" agent="Mozilla/5.0 (Windows NT 10.0; Win64; x64) AppleWebKit/537.36 (KHTML, like Gecko) Chrome/112.0.0.0 Safari/537.36 Edg/112.0.1722.48" etag="1or1HzDoF8QBgTTOMHex" version="21.1.8" type="device" pages="2">
  <diagram id="C5RBs43oDa-KdzZeNtuy" name="clases">
    <mxGraphModel dx="607" dy="334" grid="1" gridSize="10" guides="1" tooltips="1" connect="1" arrows="1" fold="1" page="1" pageScale="1" pageWidth="827" pageHeight="1169" math="0" shadow="0">
      <root>
        <mxCell id="WIyWlLk6GJQsqaUBKTNV-0" />
        <mxCell id="WIyWlLk6GJQsqaUBKTNV-1" parent="WIyWlLk6GJQsqaUBKTNV-0" />
        <mxCell id="zkfFHV4jXpPFQw0GAbJ--0" value="Usuario" style="swimlane;fontStyle=2;align=center;verticalAlign=top;childLayout=stackLayout;horizontal=1;startSize=26;horizontalStack=0;resizeParent=1;resizeLast=0;collapsible=1;marginBottom=0;rounded=0;shadow=0;strokeWidth=1;strokeColor=#FF33FF;" parent="WIyWlLk6GJQsqaUBKTNV-1" vertex="1">
          <mxGeometry x="220" y="110" width="160" height="342" as="geometry">
            <mxRectangle x="230" y="140" width="160" height="26" as="alternateBounds" />
          </mxGeometry>
        </mxCell>
        <mxCell id="zkfFHV4jXpPFQw0GAbJ--1" value="idusario" style="text;align=left;verticalAlign=top;spacingLeft=4;spacingRight=4;overflow=hidden;rotatable=0;points=[[0,0.5],[1,0.5]];portConstraint=eastwest;" parent="zkfFHV4jXpPFQw0GAbJ--0" vertex="1">
          <mxGeometry y="26" width="160" height="26" as="geometry" />
        </mxCell>
        <mxCell id="ql4dtHSbFMo2xs2XuKpZ-1" value="Perfil" style="text;align=left;verticalAlign=top;spacingLeft=4;spacingRight=4;overflow=hidden;rotatable=0;points=[[0,0.5],[1,0.5]];portConstraint=eastwest;rounded=0;shadow=0;html=0;" vertex="1" parent="zkfFHV4jXpPFQw0GAbJ--0">
          <mxGeometry y="52" width="160" height="26" as="geometry" />
        </mxCell>
        <mxCell id="zkfFHV4jXpPFQw0GAbJ--2" value="nombre" style="text;align=left;verticalAlign=top;spacingLeft=4;spacingRight=4;overflow=hidden;rotatable=0;points=[[0,0.5],[1,0.5]];portConstraint=eastwest;rounded=0;shadow=0;html=0;" parent="zkfFHV4jXpPFQw0GAbJ--0" vertex="1">
          <mxGeometry y="78" width="160" height="26" as="geometry" />
        </mxCell>
        <mxCell id="zkfFHV4jXpPFQw0GAbJ--3" value="Grupo" style="text;align=left;verticalAlign=top;spacingLeft=4;spacingRight=4;overflow=hidden;rotatable=0;points=[[0,0.5],[1,0.5]];portConstraint=eastwest;rounded=0;shadow=0;html=0;" parent="zkfFHV4jXpPFQw0GAbJ--0" vertex="1">
          <mxGeometry y="104" width="160" height="22" as="geometry" />
        </mxCell>
        <mxCell id="zkfFHV4jXpPFQw0GAbJ--5" value="Correo" style="text;align=left;verticalAlign=top;spacingLeft=4;spacingRight=4;overflow=hidden;rotatable=0;points=[[0,0.5],[1,0.5]];portConstraint=eastwest;" parent="zkfFHV4jXpPFQw0GAbJ--0" vertex="1">
          <mxGeometry y="126" width="160" height="26" as="geometry" />
        </mxCell>
        <mxCell id="ql4dtHSbFMo2xs2XuKpZ-0" value="Estado" style="text;align=left;verticalAlign=top;spacingLeft=4;spacingRight=4;overflow=hidden;rotatable=0;points=[[0,0.5],[1,0.5]];portConstraint=eastwest;rounded=0;shadow=0;html=0;" vertex="1" parent="zkfFHV4jXpPFQw0GAbJ--0">
          <mxGeometry y="152" width="160" height="26" as="geometry" />
        </mxCell>
        <mxCell id="zkfFHV4jXpPFQw0GAbJ--4" value="" style="line;html=1;strokeWidth=1;align=left;verticalAlign=middle;spacingTop=-1;spacingLeft=3;spacingRight=3;rotatable=0;labelPosition=right;points=[];portConstraint=eastwest;" parent="zkfFHV4jXpPFQw0GAbJ--0" vertex="1">
          <mxGeometry y="178" width="160" height="8" as="geometry" />
        </mxCell>
        <mxCell id="ql4dtHSbFMo2xs2XuKpZ-2" value="Ingresar()" style="text;align=left;verticalAlign=top;spacingLeft=4;spacingRight=4;overflow=hidden;rotatable=0;points=[[0,0.5],[1,0.5]];portConstraint=eastwest;rounded=0;shadow=0;html=0;" vertex="1" parent="zkfFHV4jXpPFQw0GAbJ--0">
          <mxGeometry y="186" width="160" height="26" as="geometry" />
        </mxCell>
        <mxCell id="ql4dtHSbFMo2xs2XuKpZ-3" value="Registrar()" style="text;align=left;verticalAlign=top;spacingLeft=4;spacingRight=4;overflow=hidden;rotatable=0;points=[[0,0.5],[1,0.5]];portConstraint=eastwest;rounded=0;shadow=0;html=0;" vertex="1" parent="zkfFHV4jXpPFQw0GAbJ--0">
          <mxGeometry y="212" width="160" height="26" as="geometry" />
        </mxCell>
        <mxCell id="ql4dtHSbFMo2xs2XuKpZ-4" value="consultar()" style="text;align=left;verticalAlign=top;spacingLeft=4;spacingRight=4;overflow=hidden;rotatable=0;points=[[0,0.5],[1,0.5]];portConstraint=eastwest;rounded=0;shadow=0;html=0;" vertex="1" parent="zkfFHV4jXpPFQw0GAbJ--0">
          <mxGeometry y="238" width="160" height="26" as="geometry" />
        </mxCell>
        <mxCell id="ql4dtHSbFMo2xs2XuKpZ-5" value="Opinar()" style="text;align=left;verticalAlign=top;spacingLeft=4;spacingRight=4;overflow=hidden;rotatable=0;points=[[0,0.5],[1,0.5]];portConstraint=eastwest;rounded=0;shadow=0;html=0;" vertex="1" parent="zkfFHV4jXpPFQw0GAbJ--0">
          <mxGeometry y="264" width="160" height="26" as="geometry" />
        </mxCell>
        <mxCell id="ql4dtHSbFMo2xs2XuKpZ-6" value="Escribir()" style="text;align=left;verticalAlign=top;spacingLeft=4;spacingRight=4;overflow=hidden;rotatable=0;points=[[0,0.5],[1,0.5]];portConstraint=eastwest;rounded=0;shadow=0;html=0;" vertex="1" parent="zkfFHV4jXpPFQw0GAbJ--0">
          <mxGeometry y="290" width="160" height="26" as="geometry" />
        </mxCell>
        <mxCell id="ql4dtHSbFMo2xs2XuKpZ-7" value="ActivarUsuario()" style="text;align=left;verticalAlign=top;spacingLeft=4;spacingRight=4;overflow=hidden;rotatable=0;points=[[0,0.5],[1,0.5]];portConstraint=eastwest;rounded=0;shadow=0;html=0;" vertex="1" parent="zkfFHV4jXpPFQw0GAbJ--0">
          <mxGeometry y="316" width="160" height="26" as="geometry" />
        </mxCell>
      </root>
    </mxGraphModel>
  </diagram>
  <diagram id="oVkPMPo_yJ7tB9zj9bcG" name="casos_uso">
    <mxGraphModel dx="1707" dy="484" grid="1" gridSize="10" guides="1" tooltips="1" connect="1" arrows="1" fold="1" page="1" pageScale="1" pageWidth="827" pageHeight="1169" math="0" shadow="0">
      <root>
        <mxCell id="0" />
        <mxCell id="1" parent="0" />
        <mxCell id="_WAR9Z_p2cru2GkBu1hP-24" value="" style="edgeStyle=orthogonalEdgeStyle;rounded=0;orthogonalLoop=1;jettySize=auto;html=1;" edge="1" parent="1" source="_WAR9Z_p2cru2GkBu1hP-1" target="_WAR9Z_p2cru2GkBu1hP-23">
          <mxGeometry relative="1" as="geometry" />
        </mxCell>
        <mxCell id="_WAR9Z_p2cru2GkBu1hP-26" value="" style="edgeStyle=orthogonalEdgeStyle;rounded=0;orthogonalLoop=1;jettySize=auto;html=1;" edge="1" parent="1" source="_WAR9Z_p2cru2GkBu1hP-1" target="_WAR9Z_p2cru2GkBu1hP-25">
          <mxGeometry relative="1" as="geometry" />
        </mxCell>
        <object label="Profesor" id="_WAR9Z_p2cru2GkBu1hP-1">
          <mxCell style="shape=umlActor;verticalLabelPosition=bottom;verticalAlign=top;html=1;outlineConnect=0;fillColor=#f5f5f5;gradientColor=#b3b3b3;strokeColor=#666666;" vertex="1" parent="1">
            <mxGeometry x="240" y="250" width="30" height="58" as="geometry" />
          </mxCell>
        </object>
        <mxCell id="_WAR9Z_p2cru2GkBu1hP-12" value="" style="edgeStyle=orthogonalEdgeStyle;rounded=0;orthogonalLoop=1;jettySize=auto;html=1;" edge="1" parent="1" source="_WAR9Z_p2cru2GkBu1hP-2" target="_WAR9Z_p2cru2GkBu1hP-11">
          <mxGeometry relative="1" as="geometry" />
        </mxCell>
        <mxCell id="_WAR9Z_p2cru2GkBu1hP-13" value="" style="edgeStyle=orthogonalEdgeStyle;rounded=0;orthogonalLoop=1;jettySize=auto;html=1;" edge="1" parent="1" source="_WAR9Z_p2cru2GkBu1hP-2" target="_WAR9Z_p2cru2GkBu1hP-11">
          <mxGeometry relative="1" as="geometry" />
        </mxCell>
        <mxCell id="_WAR9Z_p2cru2GkBu1hP-15" value="" style="edgeStyle=orthogonalEdgeStyle;rounded=0;orthogonalLoop=1;jettySize=auto;html=1;" edge="1" parent="1" source="_WAR9Z_p2cru2GkBu1hP-2" target="_WAR9Z_p2cru2GkBu1hP-14">
          <mxGeometry relative="1" as="geometry">
            <Array as="points">
              <mxPoint x="530" y="150" />
            </Array>
          </mxGeometry>
        </mxCell>
        <mxCell id="_WAR9Z_p2cru2GkBu1hP-2" value="usuario" style="shape=umlActor;verticalLabelPosition=bottom;verticalAlign=top;html=1;outlineConnect=0;strokeColor=#666666;fillColor=#f5f5f5;gradientColor=#b3b3b3;" vertex="1" parent="1">
          <mxGeometry x="384" y="130" width="30" height="60" as="geometry" />
        </mxCell>
        <mxCell id="_WAR9Z_p2cru2GkBu1hP-17" value="" style="edgeStyle=orthogonalEdgeStyle;rounded=0;orthogonalLoop=1;jettySize=auto;html=1;" edge="1" parent="1" source="_WAR9Z_p2cru2GkBu1hP-3" target="_WAR9Z_p2cru2GkBu1hP-16">
          <mxGeometry relative="1" as="geometry">
            <Array as="points">
              <mxPoint x="623" y="280" />
              <mxPoint x="623" y="250" />
            </Array>
          </mxGeometry>
        </mxCell>
        <mxCell id="_WAR9Z_p2cru2GkBu1hP-27" value="" style="edgeStyle=orthogonalEdgeStyle;rounded=0;orthogonalLoop=1;jettySize=auto;html=1;" edge="1" parent="1" source="_WAR9Z_p2cru2GkBu1hP-3" target="_WAR9Z_p2cru2GkBu1hP-16">
          <mxGeometry relative="1" as="geometry" />
        </mxCell>
        <mxCell id="_WAR9Z_p2cru2GkBu1hP-29" value="" style="edgeStyle=orthogonalEdgeStyle;rounded=0;orthogonalLoop=1;jettySize=auto;html=1;" edge="1" parent="1" source="_WAR9Z_p2cru2GkBu1hP-3" target="_WAR9Z_p2cru2GkBu1hP-28">
          <mxGeometry relative="1" as="geometry" />
        </mxCell>
        <mxCell id="_WAR9Z_p2cru2GkBu1hP-3" value="Estudiante" style="shape=umlActor;verticalLabelPosition=bottom;verticalAlign=top;html=1;outlineConnect=0;fillColor=#f5f5f5;gradientColor=#b3b3b3;strokeColor=#666666;shadow=0;" vertex="1" parent="1">
          <mxGeometry x="540" y="250" width="30" height="60" as="geometry" />
        </mxCell>
        <mxCell id="_WAR9Z_p2cru2GkBu1hP-7" value="" style="endArrow=none;html=1;rounded=0;" edge="1" parent="1">
          <mxGeometry width="50" height="50" relative="1" as="geometry">
            <mxPoint x="560" y="160" as="sourcePoint" />
            <mxPoint x="420" y="160" as="targetPoint" />
          </mxGeometry>
        </mxCell>
        <mxCell id="_WAR9Z_p2cru2GkBu1hP-8" value="" style="endArrow=classic;html=1;rounded=0;" edge="1" parent="1">
          <mxGeometry width="50" height="50" relative="1" as="geometry">
            <mxPoint x="560" y="160" as="sourcePoint" />
            <mxPoint x="560" y="230" as="targetPoint" />
          </mxGeometry>
        </mxCell>
        <mxCell id="_WAR9Z_p2cru2GkBu1hP-9" value="" style="endArrow=none;html=1;rounded=0;" edge="1" parent="1">
          <mxGeometry width="50" height="50" relative="1" as="geometry">
            <mxPoint x="240" y="160" as="sourcePoint" />
            <mxPoint x="370" y="160" as="targetPoint" />
          </mxGeometry>
        </mxCell>
        <mxCell id="_WAR9Z_p2cru2GkBu1hP-10" value="" style="endArrow=classic;html=1;rounded=0;" edge="1" parent="1">
          <mxGeometry width="50" height="50" relative="1" as="geometry">
            <mxPoint x="240" y="160" as="sourcePoint" />
            <mxPoint x="240" y="240" as="targetPoint" />
          </mxGeometry>
        </mxCell>
        <mxCell id="_WAR9Z_p2cru2GkBu1hP-11" value="&lt;font style=&quot;font-size: 18px;&quot;&gt;Ingresar&lt;br&gt;&lt;/font&gt;" style="ellipse;whiteSpace=wrap;html=1;verticalAlign=top;strokeColor=#000066;fillColor=#dae8fc;shadow=1;" vertex="1" parent="1">
          <mxGeometry x="390" y="40" width="80" height="50" as="geometry" />
        </mxCell>
        <mxCell id="_WAR9Z_p2cru2GkBu1hP-14" value="&lt;font style=&quot;font-size: 18px;&quot;&gt;Registrar&lt;/font&gt;" style="ellipse;whiteSpace=wrap;html=1;verticalAlign=top;strokeColor=#000066;fillColor=#dae8fc;shadow=1;" vertex="1" parent="1">
          <mxGeometry x="490" y="50" width="80" height="40" as="geometry" />
        </mxCell>
        <mxCell id="_WAR9Z_p2cru2GkBu1hP-16" value="Consulta" style="ellipse;whiteSpace=wrap;html=1;verticalAlign=top;strokeColor=#36393d;fillColor=#cce5ff;shadow=1;" vertex="1" parent="1">
          <mxGeometry x="675" y="230" width="80" height="40" as="geometry" />
        </mxCell>
        <mxCell id="_WAR9Z_p2cru2GkBu1hP-18" value="Ingresar" style="ellipse;whiteSpace=wrap;html=1;verticalAlign=top;strokeColor=#000099;fillColor=#dae8fc;shadow=1;" vertex="1" parent="1">
          <mxGeometry x="670" y="70" width="80" height="30" as="geometry" />
        </mxCell>
        <mxCell id="_WAR9Z_p2cru2GkBu1hP-20" value="" style="endArrow=none;html=1;rounded=0;" edge="1" parent="1">
          <mxGeometry width="50" height="50" relative="1" as="geometry">
            <mxPoint x="710" y="180" as="sourcePoint" />
            <mxPoint x="710" y="230" as="targetPoint" />
          </mxGeometry>
        </mxCell>
        <mxCell id="_WAR9Z_p2cru2GkBu1hP-21" value="&lt;font style=&quot;font-size: 14px;&quot;&gt;incluye&lt;/font&gt;" style="text;html=1;align=center;verticalAlign=middle;resizable=0;points=[];autosize=1;strokeColor=none;fillColor=none;" vertex="1" parent="1">
          <mxGeometry x="675" y="148" width="70" height="30" as="geometry" />
        </mxCell>
        <mxCell id="_WAR9Z_p2cru2GkBu1hP-22" value="" style="endArrow=classic;html=1;rounded=0;entryX=0.5;entryY=1;entryDx=0;entryDy=0;" edge="1" parent="1" source="_WAR9Z_p2cru2GkBu1hP-21" target="_WAR9Z_p2cru2GkBu1hP-18">
          <mxGeometry width="50" height="50" relative="1" as="geometry">
            <mxPoint x="390" y="190" as="sourcePoint" />
            <mxPoint x="440" y="140" as="targetPoint" />
          </mxGeometry>
        </mxCell>
        <mxCell id="_WAR9Z_p2cru2GkBu1hP-23" value="&lt;span style=&quot;font-size: 14px;&quot;&gt;Consultar aportes&lt;/span&gt;" style="ellipse;whiteSpace=wrap;html=1;verticalAlign=top;fillColor=#dae8fc;strokeColor=#6c8ebf;gradientColor=#7ea6e0;" vertex="1" parent="1">
          <mxGeometry x="30" y="199" width="80" height="41" as="geometry" />
        </mxCell>
        <mxCell id="_WAR9Z_p2cru2GkBu1hP-25" value="&lt;span style=&quot;font-size: 14px;&quot;&gt;Consultar comentarios&lt;/span&gt;" style="ellipse;whiteSpace=wrap;html=1;verticalAlign=top;fillColor=#dae8fc;strokeColor=#6c8ebf;gradientColor=#7ea6e0;" vertex="1" parent="1">
          <mxGeometry x="-10" y="270" width="80" height="50" as="geometry" />
        </mxCell>
        <mxCell id="_WAR9Z_p2cru2GkBu1hP-28" value="Realizar&lt;br&gt;comentarios" style="ellipse;whiteSpace=wrap;html=1;verticalAlign=top;fillColor=#dae8fc;strokeColor=#6c8ebf;shadow=0;gradientColor=#7ea6e0;" vertex="1" parent="1">
          <mxGeometry x="640" y="290" width="80" height="50" as="geometry" />
        </mxCell>
      </root>
    </mxGraphModel>
  </diagram>
</mxfile>
